<?xml version="1.0" encoding="UTF-8"?>
<svg version="1.1" xmlns="http://www.w3.org/2000/svg" width="372" height="371">
<path d="M0 0 C122.76 0 245.52 0 372 0 C372 122.43 372 244.86 372 371 C249.24 371 126.48 371 0 371 C0 248.57 0 126.14 0 0 Z " fill="#FEFEFE" transform="translate(0,0)"/>
<path d="M0 0 C3.7264813 8.48458737 3.7264813 8.48458737 2 13 C1.34 13.66 0.68 14.32 0 15 C0.45363981 20.52164703 1.78570462 25.91416509 3 31.3125 C3.26683594 32.52776367 3.26683594 32.52776367 3.5390625 33.76757812 C4.43003153 37.99664056 4.43003153 37.99664056 6 42 C6.24479329 45.82782647 6.1852174 49.66523627 6.1875 53.5 C6.19974609 54.551875 6.21199219 55.60375 6.22460938 56.6875 C6.23700831 63.36639262 5.59919562 69.51261154 4 76 C6.31 76 8.62 76 11 76 C11 75.34 11 74.68 11 74 C12.051875 73.71125 13.10375 73.4225 14.1875 73.125 C17.22818711 72.22774807 20.08712344 71.23576581 23 70 C23 69.34 23 68.68 23 68 C23.99 68 24.98 68 26 68 C26 67.34 26 66.68 26 66 C26.82242188 65.68546875 27.64484375 65.3709375 28.4921875 65.046875 C34.550303 62.72436421 40.59361772 60.38250854 46.5859375 57.89453125 C56.3499763 54.27646509 69.87947737 52.21162777 80.02636719 55.69580078 C82.60276903 57.00306444 84.76618258 58.61819937 86.9765625 60.46875 C89.10868366 62.40229511 89.10868366 62.40229511 93 62 C93.99 62 94.98 62 96 62 C96 61.34 96 60.68 96 60 C101.05255964 60.63156995 105.29593201 62.13459373 110 64 C110 64.66 110 65.32 110 66 C110.763125 66.28875 111.52625 66.5775 112.3125 66.875 C115 68 115 68 118 70 C118 70.66 118 71.32 118 72 C119.25490234 71.7834375 119.25490234 71.7834375 120.53515625 71.5625 C129.48669444 70.13501218 137.94831147 69.77180617 147 70 C146.46417976 73.50992357 145.76259796 75.77654026 143.5625 78.5625 C142.77166016 79.60277344 142.77166016 79.60277344 141.96484375 80.6640625 C140 83 140 83 137.37890625 85.5859375 C132.7158577 90.41434238 129.46625146 94.13411688 129.51464844 101.09521484 C129.5886366 102.53994831 129.67010263 103.98431693 129.75878906 105.42822266 C130.51309668 117.97487267 126.13592867 129.20076554 120 140 C119.34 140 118.68 140 118 140 C117.91878906 140.56074219 117.83757812 141.12148437 117.75390625 141.69921875 C115.24145462 149.3667525 106.19063601 156.06628629 100 161 C99.31035156 161.56203125 98.62070312 162.1240625 97.91015625 162.703125 C80.4622887 175.94560909 59.55200515 180.57670517 38 179 C35.58320074 178.63848432 33.31830256 178.16903405 30.96875 177.51171875 C27.37310395 176.57713615 23.69112406 176.35153562 20 176 C20 175.34 20 174.68 20 174 C19.195625 173.938125 18.39125 173.87625 17.5625 173.8125 C12.8364549 172.73463007 9.12486573 170.48408581 5 168 C5.2165625 169.60488281 5.2165625 169.60488281 5.4375 171.2421875 C6.67115577 181.09937122 7.23980761 190.87740801 7.3125 200.8125 C7.32990234 201.9267334 7.34730469 203.0409668 7.36523438 204.18896484 C7.36180284 209.82097196 7.34246862 214.20994156 4 219 C0.90826248 220.54586876 -1.59429552 220.29359521 -5 220 C-7.36497439 218.13291495 -8.66030715 216.67938569 -10 214 C-10.14652543 212.45934615 -10.23639607 210.91311336 -10.29711914 209.36669922 C-10.33708511 208.40585419 -10.37705109 207.44500916 -10.41822815 206.45504761 C-10.45681442 205.41542877 -10.4954007 204.37580994 -10.53515625 203.3046875 C-10.57813339 202.24210724 -10.62111053 201.17952698 -10.66539001 200.08474731 C-10.80204321 196.68165293 -10.93233955 193.27834831 -11.0625 189.875 C-11.15387917 187.57159797 -11.24567071 185.26821227 -11.33789062 182.96484375 C-11.56338396 177.3100767 -11.78365484 171.65512404 -12 166 C-12.54269531 166.433125 -13.08539063 166.86625 -13.64453125 167.3125 C-14.35996094 167.869375 -15.07539063 168.42625 -15.8125 169 C-16.52019531 169.556875 -17.22789062 170.11375 -17.95703125 170.6875 C-20 172 -20 172 -23 172 C-23.10054687 172.79535156 -23.20109375 173.59070313 -23.3046875 174.41015625 C-24.17819316 178.91999729 -25.59769143 183.11184518 -27.125 187.4375 C-27.4341333 188.3155127 -27.7432666 189.19352539 -28.06176758 190.09814453 C-37.66956331 216.83478165 -37.66956331 216.83478165 -44 220 C-47.83614957 220.35519903 -50.14629634 220.54724594 -53.4375 218.4375 C-55.66401351 214.96413892 -55.52872634 213.09762913 -55 209 C-54.46297035 207.48122918 -53.87724415 205.97925511 -53.2578125 204.4921875 C-52.89655273 203.61256348 -52.53529297 202.73293945 -52.16308594 201.82666016 C-51.77926758 200.8938623 -51.39544922 199.96106445 -51 199 C-49.44639198 195.08802299 -47.9117207 191.16863778 -46.375 187.25 C-45.98054688 186.24839844 -45.58609375 185.24679687 -45.1796875 184.21484375 C-41.08706308 174.41847567 -41.08706308 174.41847567 -40 164 C-47.83293249 163.82971886 -51.62055349 168.86433506 -57 174 C-69.45289429 185.16179153 -85.76883181 194.46244716 -102.87890625 194.43359375 C-105.61079466 193.87514142 -107.01166561 192.94414918 -109 191 C-109.7815534 185.52912621 -109.7815534 185.52912621 -109 183 C-105.07993148 178.92650414 -100.6307728 177.68623987 -95.375 176.125 C-83.65275306 172.39214514 -75.01538633 167.53720506 -66.21484375 158.9765625 C-64 157 -64 157 -62 157 C-62 155.02 -62 153.04 -62 151 C-63.11375 151.45890625 -64.2275 151.9178125 -65.375 152.390625 C-78.45253278 157.6856984 -91.75568611 162.47321324 -106 163 C-107.86398438 163.09474609 -107.86398438 163.09474609 -109.765625 163.19140625 C-111.11448193 163.23502803 -112.46344814 163.27539253 -113.8125 163.3125 C-115.67841797 163.36857422 -115.67841797 163.36857422 -117.58203125 163.42578125 C-121.6029559 162.92488892 -123.2122212 161.89218999 -126 159 C-126.69748184 155.35759486 -126.34020471 153.62463816 -124.5703125 150.375 C-120.78354478 146.87598059 -117.31228654 147.14885928 -112.3125 146.9375 C-99.03495428 146.03625716 -86.65894766 143.10560465 -74 139 C-74 137.68 -74 136.36 -74 135 C-75.05316406 135.03480469 -76.10632813 135.06960937 -77.19140625 135.10546875 C-97.31735268 135.57083572 -116.06354775 130.95931282 -132 118 C-132 117.34 -132 116.68 -132 116 C-132.66 116 -133.32 116 -134 116 C-134 115.34 -134 114.68 -134 114 C-134.66 114 -135.32 114 -136 114 C-136 113.34 -136 112.68 -136 112 C-136.66 112 -137.32 112 -138 112 C-138 111.34 -138 110.68 -138 110 C-138.66 110 -139.32 110 -140 110 C-140 109.34 -140 108.68 -140 108 C-140.66 108 -141.32 108 -142 108 C-142 107.34 -142 106.68 -142 106 C-142.66 106 -143.32 106 -144 106 C-144.99 103.03 -144.99 103.03 -146 100 C-146.66 100 -147.32 100 -148 100 C-148.96345444 98.12762629 -149.92053102 96.2519701 -150.875 94.375 C-151.40867187 93.33085937 -151.94234375 92.28671875 -152.4921875 91.2109375 C-154.64022107 86.63662768 -156 83.08303476 -156 78 C-156.66 78 -157.32 78 -158 78 C-158.33 75.03 -158.66 72.06 -159 69 C-161.31 68.34 -163.62 67.68 -166 67 C-166.99 63.04 -167.98 59.08 -169 55 C-160.05882316 50.21136012 -151.15829061 46.76976485 -141.5378418 43.64013672 C-139.19812714 42.87845959 -136.86352135 42.10253879 -134.52929688 41.32421875 C-122.28993428 37.27274644 -109.9328446 33.96386053 -97.41699219 30.87084961 C-85.42536377 27.86865212 -73.80492341 24.20564791 -62.62988281 18.86791992 C-55.09916025 15.28863343 -47.39892125 12.66310643 -39.46777344 10.14282227 C-37.26496905 9.44226063 -35.06593084 8.73077033 -32.8671875 8.01757812 C-6.92069855 -0.34538479 -6.92069855 -0.34538479 0 0 Z " fill="#FC8D01" transform="translate(195,110)"/>
<path d="M0 0 C3.7264813 8.48458737 3.7264813 8.48458737 2 13 C1.34 13.66 0.68 14.32 0 15 C0.28241302 18.60076601 0.93745665 21.80162776 2.0234375 25.24609375 C4.254461 33.82214807 4.48971878 44.30293283 0.203125 52.2421875 C-1.59808412 54.87382421 -3.57748596 56.93200021 -6 59 C-6.74378906 59.6496875 -7.48757812 60.299375 -8.25390625 60.96875 C-11.2494345 63.18450347 -14.01197842 64.39579107 -17.5 65.6875 C-18.6034375 66.10386719 -19.706875 66.52023438 -20.84375 66.94921875 C-30.85579815 70.28243775 -44.19018445 71.05504909 -53.87109375 66.3046875 C-61.61218445 61.56060623 -65.81758732 55.5852264 -70.23828125 47.79296875 C-71.862667 44.79702441 -71.862667 44.79702441 -75 43 C-79.0971274 42.51678842 -79.0971274 42.51678842 -82.67797852 44.22241211 C-84.41783937 46.56182612 -84.29357576 47.86431588 -84.15234375 50.75390625 C-84.12462891 51.69169922 -84.09691406 52.62949219 -84.06835938 53.59570312 C-83.98231565 55.54645569 -83.89131295 57.49699697 -83.79492188 59.44726562 C-83.51309987 69.54474202 -86.65594758 78.2050846 -93.57421875 85.70703125 C-103.27463392 95.04139302 -116.65592392 99.48970558 -129.92919922 99.50195312 C-137.58617966 99.26847624 -142.48488364 96.57746875 -147.76171875 91.20703125 C-152.49750276 85.42150166 -155.5689337 78.30543022 -157.9140625 71.25 C-158.88777219 68.56308144 -158.88777219 68.56308144 -162.625 67.6875 C-163.73875 67.460625 -164.8525 67.23375 -166 67 C-166.99 63.04 -167.98 59.08 -169 55 C-160.05882316 50.21136012 -151.15829061 46.76976485 -141.5378418 43.64013672 C-139.19812714 42.87845959 -136.86352135 42.10253879 -134.52929688 41.32421875 C-122.28993428 37.27274644 -109.9328446 33.96386053 -97.41699219 30.87084961 C-85.42536377 27.86865212 -73.80492341 24.20564791 -62.62988281 18.86791992 C-55.09916025 15.28863343 -47.39892125 12.66310643 -39.46777344 10.14282227 C-37.26496905 9.44226063 -35.06593084 8.73077033 -32.8671875 8.01757812 C-6.92069855 -0.34538479 -6.92069855 -0.34538479 0 0 Z " fill="#34210A" transform="translate(195,110)"/>
<path d="M0 0 C6.14763865 12.2952773 4.16844848 29.38768655 0.32421875 42.390625 C-3.4850413 52.77338692 -8.53573886 61.75792737 -16 70 C-17.07314453 71.22976562 -17.07314453 71.22976562 -18.16796875 72.484375 C-33.17812745 88.67623799 -55.02737238 98.28714891 -76.95703125 99.421875 C-98.15935401 99.95542029 -118.16963321 95.68623233 -135 82 C-135 81.34 -135 80.68 -135 80 C-135.66 80 -136.32 80 -137 80 C-137 79.34 -137 78.68 -137 78 C-137.66 78 -138.32 78 -139 78 C-139 77.34 -139 76.68 -139 76 C-139.66 76 -140.32 76 -141 76 C-141 75.34 -141 74.68 -141 74 C-141.66 74 -142.32 74 -143 74 C-143 73.34 -143 72.68 -143 72 C-143.66 72 -144.32 72 -145 72 C-145 71.34 -145 70.68 -145 70 C-145.66 70 -146.32 70 -147 70 C-147.99 67.03 -147.99 67.03 -149 64 C-149.66 64 -150.32 64 -151 64 C-151.96345444 62.12762629 -152.92053102 60.2519701 -153.875 58.375 C-154.40867187 57.33085937 -154.94234375 56.28671875 -155.4921875 55.2109375 C-157.64022107 50.63662768 -159 47.08303476 -159 42 C-159.66 42 -160.32 42 -161 42 C-161 39.36 -161 36.72 -161 34 C-159.7829975 36.4159307 -158.59245555 38.8421916 -157.4140625 41.27734375 C-156.81785151 42.49746581 -156.2214937 43.71751613 -155.625 44.9375 C-155.33367187 45.54529297 -155.04234375 46.15308594 -154.7421875 46.77929688 C-151.61487247 53.13679914 -148.19274781 57.77314769 -141.87109375 61.04296875 C-129.58150468 65.13949844 -117.24601192 61.06713867 -106.1171875 55.578125 C-97.39324007 50.73438105 -91.39207046 43.83312869 -88.44970703 34.19799805 C-87.93794451 31.69669623 -87.95350701 29.48845103 -88.04296875 26.9375 C-88.07487305 25.49503906 -88.07487305 25.49503906 -88.10742188 24.0234375 C-88.16081641 22.00746832 -88.22592716 19.99177548 -88.30273438 17.9765625 C-88.43562792 10.63296364 -88.43562792 10.63296364 -86.171875 7.34375 C-83.17504663 5.48959719 -81.46729575 5.4339109 -78 6 C-73.72711299 8.84405536 -71.65208451 11.92318208 -69.1875 16.375 C-64.93735418 23.65084487 -59.77091543 28.83404453 -51.578125 31.52734375 C-37.72393723 34.06727817 -22.92957565 31.66901292 -11 24 C-2.93971572 17.22203367 -1.25494568 10.05607792 0 0 Z " fill="#FCB903" transform="translate(198,146)"/>
<path d="M0 0 C10.31711272 5.7565343 16.23862921 14.09932944 20.33984375 24.97265625 C20.73300781 25.90207031 21.12617188 26.83148438 21.53125 27.7890625 C24.21880927 34.9714944 24.72337493 41.60035468 24.77734375 49.22265625 C24.78741455 50.1453833 24.79748535 51.06811035 24.80786133 52.01879883 C24.67114094 62.81970955 21.43240219 69.94530454 14.33984375 77.97265625 C13.82679688 78.55660156 13.31375 79.14054687 12.78515625 79.7421875 C9.04250602 83.71758961 4.82629154 87.06384964 0.52734375 90.41015625 C-0.04838379 90.8599585 -0.62411133 91.30976074 -1.21728516 91.77319336 C-5.4132817 94.97265625 -5.4132817 94.97265625 -7.66015625 94.97265625 C-7.66015625 95.63265625 -7.66015625 96.29265625 -7.66015625 96.97265625 C-10.03515625 98.41015625 -10.03515625 98.41015625 -13.66015625 98.97265625 C-17.28172942 97.00128003 -20.41969786 94.50790697 -23.66015625 91.97265625 C-32.15482122 87.72532376 -47.61395695 90.29132847 -56.34765625 93.16015625 C-61.89420421 95.08218579 -67.27001868 97.44004567 -72.5234375 100.0546875 C-74.66015625 100.97265625 -74.66015625 100.97265625 -77.66015625 100.97265625 C-77.66015625 101.63265625 -77.66015625 102.29265625 -77.66015625 102.97265625 C-78.65015625 102.97265625 -79.64015625 102.97265625 -80.66015625 102.97265625 C-80.66015625 103.63265625 -80.66015625 104.29265625 -80.66015625 104.97265625 C-84.75106285 108.28434254 -87.39644263 109.47396231 -92.66015625 108.97265625 C-92.66015625 109.63265625 -92.66015625 110.29265625 -92.66015625 110.97265625 C-94.97015625 110.97265625 -97.28015625 110.97265625 -99.66015625 110.97265625 C-100.342273 101.08196333 -94.98381753 95.97470513 -89.09765625 88.47265625 C-88.47922852 87.68093018 -87.86080078 86.8892041 -87.22363281 86.07348633 C-83.01573289 80.69004095 -78.79185237 75.31912104 -74.56420898 69.95117188 C-71.14821435 65.60868855 -67.77601614 61.23389905 -64.41552734 56.84838867 C-61.48648438 53.03146164 -58.51815854 49.24749404 -55.53515625 45.47265625 C-50.09736165 38.586565 -44.78816154 31.60406418 -39.49365234 24.60742188 C-36.17385655 20.23007341 -32.83027686 15.87186721 -29.4375 11.55078125 C-28.50345337 10.3582373 -28.50345337 10.3582373 -27.55053711 9.14160156 C-20.37965187 0.91402253 -10.83298332 -4.18366316 0 0 Z " fill="#99C0C7" transform="translate(298.66015625,75.02734375)"/>
<path d="M0 0 C0.75990234 -0.02900391 1.51980469 -0.05800781 2.30273438 -0.08789062 C9.10464331 -0.16340285 14.00805202 1.8344646 19.27734375 6.109375 C29.61492467 17.82998829 38.97486399 34.70267619 41.0625 50.3125 C42.21298828 50.20808594 42.21298828 50.20808594 43.38671875 50.1015625 C56.3899863 49.46725677 69.1507926 53.21102032 81.0625 58.3125 C81.0625 58.9725 81.0625 59.6325 81.0625 60.3125 C81.7225 60.3125 82.3825 60.3125 83.0625 60.3125 C83.0625 60.9725 83.0625 61.6325 83.0625 62.3125 C84.3825 62.3125 85.7025 62.3125 87.0625 62.3125 C87.0625 62.9725 87.0625 63.6325 87.0625 64.3125 C87.7225 64.3125 88.3825 64.3125 89.0625 64.3125 C89.0625 64.9725 89.0625 65.6325 89.0625 66.3125 C90.0525 66.3125 91.0425 66.3125 92.0625 66.3125 C92.0625 66.9725 92.0625 67.6325 92.0625 68.3125 C93.0525 68.3125 94.0425 68.3125 95.0625 68.3125 C95.0625 68.9725 95.0625 69.6325 95.0625 70.3125 C93.93046143 70.68947021 92.79842285 71.06644043 91.63208008 71.45483398 C66.64874697 79.53224068 66.64874697 79.53224068 42.3125 89.3125 C31.36726487 94.27074211 20.02291168 97.54076152 8.30444336 100.14892578 C-2.68731857 102.59611318 -13.23363054 105.89659454 -23.875 109.5625 C-26.30719318 110.39419201 -28.74012944 111.22359035 -31.17420959 112.04974365 C-32.67009841 112.55806225 -34.16481944 113.06983412 -35.65818787 113.58551025 C-40.71541271 115.3125 -40.71541271 115.3125 -42.9375 115.3125 C-42.23852719 104.30367826 -37.67276141 96.55009439 -31.9375 87.3125 C-31.42316406 86.38953125 -30.90882812 85.4665625 -30.37890625 84.515625 C-29.90324219 83.78859375 -29.42757812 83.0615625 -28.9375 82.3125 C-28.2775 82.3125 -27.6175 82.3125 -26.9375 82.3125 C-26.9375 81.6525 -26.9375 80.9925 -26.9375 80.3125 C-26.2775 80.3125 -25.6175 80.3125 -24.9375 80.3125 C-24.9375 79.6525 -24.9375 78.9925 -24.9375 78.3125 C-24.2775 78.3125 -23.6175 78.3125 -22.9375 78.3125 C-22.9375 77.6525 -22.9375 76.9925 -22.9375 76.3125 C-22.2775 76.3125 -21.6175 76.3125 -20.9375 76.3125 C-20.2775 74.9925 -19.6175 73.6725 -18.9375 72.3125 C-18.2775 72.3125 -17.6175 72.3125 -16.9375 72.3125 C-16.9375 71.6525 -16.9375 70.9925 -16.9375 70.3125 C-14.97822937 68.5981382 -12.97869788 66.92844832 -10.9375 65.3125 C-19.94313158 51.32518506 -19.94313158 51.32518506 -32.9375 41.3125 C-37.87918867 40.79232225 -42.23767118 41.49990798 -47.125 42.3125 C-53.68665565 43.38566798 -60.29927906 43.99540321 -66.9375 43.3125 C-68.9375 41.3125 -68.9375 41.3125 -69.375 38.375 C-68.9375 35.3125 -68.9375 35.3125 -66.87109375 33.75390625 C-63.48522091 32.09027499 -60.2154159 31.12851485 -56.5625 30.1875 C-55.29664063 29.85492188 -54.03078125 29.52234375 -52.7265625 29.1796875 C-43.02460899 26.95924041 -34.57711112 25.57282685 -25.61328125 30.5078125 C-15.10003569 37.59849782 -6.29029112 47.38338214 0.0625 58.3125 C3.9342947 57.24157806 7.75645867 56.09858944 11.5625 54.8125 C21.99143401 51.3125 21.99143401 51.3125 27.0625 51.3125 C23.03975829 38.12289111 18.1039552 22.3401368 6.0625 14.3125 C3.41226376 14.10132189 3.41226376 14.10132189 0.44140625 14.2578125 C-0.65880859 14.28230469 -1.75902344 14.30679688 -2.89257812 14.33203125 C-5.21053997 14.40223312 -7.52827631 14.48033412 -9.84570312 14.56640625 C-10.94720703 14.58832031 -12.04871094 14.61023437 -13.18359375 14.6328125 C-14.19091553 14.66648926 -15.1982373 14.70016602 -16.23608398 14.73486328 C-19.69358102 14.1942876 -20.84648972 13.06726898 -22.9375 10.3125 C-23.0625 7.25 -23.0625 7.25 -21.9375 4.3125 C-15.51161853 -0.12441816 -7.5509833 0.09558207 0 0 Z " fill="#FCBA03" transform="translate(81.9375,43.6875)"/>
<path d="M0 0 C3.83809489 3.50434751 5.69870546 5.847286 6.03515625 11.1484375 C5.26560027 34.11198804 -12.32128448 58.29157217 -23.39404297 77.59082031 C-27.04122366 83.98393197 -30.61064451 90.42103468 -34.19262695 96.85083008 C-37.09042172 102.03896331 -40.01408902 107.21177681 -42.9765625 112.36328125 C-43.55486816 113.37044189 -44.13317383 114.37760254 -44.72900391 115.4152832 C-45.18968262 116.14448975 -45.65036133 116.87369629 -46.125 117.625 C-46.455 117.625 -46.785 117.625 -47.125 117.625 C-47.17398438 116.97273438 -47.22296875 116.32046875 -47.2734375 115.6484375 C-47.34820312 114.77445312 -47.42296875 113.90046875 -47.5 113 C-47.60441406 111.71222656 -47.60441406 111.71222656 -47.7109375 110.3984375 C-48.17334999 107.30114632 -49.1129475 104.58646728 -50.125 101.625 C-50.67809343 99.32000298 -51.19800484 97.0068357 -51.6875 94.6875 C-51.93628906 93.52347656 -52.18507812 92.35945313 -52.44140625 91.16015625 C-53.12090505 87.64617675 -53.7674442 84.1873152 -54.125 80.625 C-53.125 79.625 -52.125 78.625 -51.125 77.625 C-51.30629815 74.18706661 -51.30629815 74.18706661 -52.125 70.625 C-52.455 68.975 -52.785 67.325 -53.125 65.625 C-59.065 66.945 -65.005 68.265 -71.125 69.625 C-71.125 68.965 -71.125 68.305 -71.125 67.625 C-72.115 67.625 -73.105 67.625 -74.125 67.625 C-74.125 66.965 -74.125 66.305 -74.125 65.625 C-75.115 65.625 -76.105 65.625 -77.125 65.625 C-77.125 64.965 -77.125 64.305 -77.125 63.625 C-77.785 63.625 -78.445 63.625 -79.125 63.625 C-79.125 62.965 -79.125 62.305 -79.125 61.625 C-80.445 61.625 -81.765 61.625 -83.125 61.625 C-82.93619241 56.67992972 -82.72366428 51.73662229 -82.49023438 46.79345703 C-82.41423507 45.1159978 -82.34443381 43.43824472 -82.28125 41.76025391 C-81.76075619 28.10542412 -80.44990109 18.14140016 -70.609375 7.8828125 C-53.34421966 -7.80784754 -20.13571957 -12.90858371 0 0 Z " fill="#BED6DA" transform="translate(248.125,44.375)"/>
<path d="M0 0 C2.8828125 1.93359375 2.8828125 1.93359375 5.234375 3.90234375 C7.36649616 5.83588886 7.36649616 5.83588886 11.2578125 5.43359375 C12.2478125 5.43359375 13.2378125 5.43359375 14.2578125 5.43359375 C14.2578125 4.77359375 14.2578125 4.11359375 14.2578125 3.43359375 C19.31037214 4.0651637 23.55374451 5.56818748 28.2578125 7.43359375 C28.2578125 8.09359375 28.2578125 8.75359375 28.2578125 9.43359375 C29.0209375 9.72234375 29.7840625 10.01109375 30.5703125 10.30859375 C33.2578125 11.43359375 33.2578125 11.43359375 36.2578125 13.43359375 C36.2578125 14.09359375 36.2578125 14.75359375 36.2578125 15.43359375 C37.09441406 15.28921875 37.93101562 15.14484375 38.79296875 14.99609375 C47.74450694 13.56860593 56.20612397 13.20539992 65.2578125 13.43359375 C64.72199226 16.94351732 64.02041046 19.21013401 61.8203125 21.99609375 C61.29308594 22.68960938 60.76585937 23.383125 60.22265625 24.09765625 C58.2578125 26.43359375 58.2578125 26.43359375 55.63671875 29.01953125 C50.9736702 33.84793613 47.72406396 37.56771063 47.77246094 44.52880859 C47.8464491 45.97354206 47.92791513 47.41791068 48.01660156 48.86181641 C48.77090918 61.40846642 44.39374117 72.63435929 38.2578125 83.43359375 C37.5978125 83.43359375 36.9378125 83.43359375 36.2578125 83.43359375 C36.13599609 84.27470703 36.13599609 84.27470703 36.01171875 85.1328125 C32.59934697 95.54673466 19.22893883 103.96883099 10.2578125 109.43359375 C10.2484668 108.56371826 10.23912109 107.69384277 10.22949219 106.79760742 C9.92686783 82.35370024 9.92686783 82.35370024 5.2578125 58.43359375 C5.08266113 57.78229492 4.90750977 57.13099609 4.72705078 56.45996094 C1.45148545 44.41824344 -4.27670489 31.77180653 -12.7421875 22.43359375 C-15.37679698 21.55415971 -15.37679698 21.55415971 -17.7421875 21.43359375 C-17.7421875 22.09359375 -17.7421875 22.75359375 -17.7421875 23.43359375 C-23.976041 26.86221317 -31.39805574 28.28402977 -38.4296875 28.99609375 C-40.069375 29.21265625 -40.069375 29.21265625 -41.7421875 29.43359375 C-42.0721875 30.09359375 -42.4021875 30.75359375 -42.7421875 31.43359375 C-48.78926529 32.63673206 -54.71915338 32.63820057 -60.7421875 31.43359375 C-60.7421875 30.77359375 -60.7421875 30.11359375 -60.7421875 29.43359375 C-62.3921875 29.43359375 -64.0421875 29.43359375 -65.7421875 29.43359375 C-66.52695115 18.34226745 -66.52695115 18.34226745 -63.3671875 14.68359375 C-60.7421875 13.43359375 -60.7421875 13.43359375 -58.7421875 13.43359375 C-58.7421875 12.77359375 -58.7421875 12.11359375 -58.7421875 11.43359375 C-57.7521875 11.43359375 -56.7621875 11.43359375 -55.7421875 11.43359375 C-55.7421875 10.77359375 -55.7421875 10.11359375 -55.7421875 9.43359375 C-54.91976562 9.1190625 -54.09734375 8.80453125 -53.25 8.48046875 C-47.1918845 6.15795796 -41.14856978 3.81610229 -35.15625 1.328125 C-25.27422153 -2.33366225 -9.89250991 -5.01944939 0 0 Z " fill="#98B183" transform="translate(276.7421875,166.56640625)"/>
<path d="M0 0 C2.26171875 -0.28125 2.26171875 -0.28125 5 0 C16.80663652 11.12321844 22.60887019 29.65587913 26 45 C26.18256348 45.79664063 26.36512695 46.59328125 26.55322266 47.4140625 C28.12341453 54.98275613 28.50376681 62.52274629 28.59033203 70.22705078 C28.61362376 71.67015407 28.65491948 73.11306895 28.71337891 74.55517578 C29.19631376 86.53142049 29.19631376 86.53142049 26.37695312 89.99243164 C24.28880693 91.32875597 22.33807123 92.18990012 20 93 C19.01515625 93.49886719 18.0303125 93.99773437 17.015625 94.51171875 C16.10296875 94.89972656 15.1903125 95.28773438 14.25 95.6875 C13.34765625 96.08324219 12.4453125 96.47898437 11.515625 96.88671875 C6.43848529 98.49447966 1.25969096 99.22108312 -4 100 C-4.01981934 99.24605957 -4.03963867 98.49211914 -4.06005859 97.71533203 C-4.8579921 68.75607691 -5.88746381 41.54919555 -21.13623047 16.10400391 C-24 11.28989771 -24 11.28989771 -24 8 C-23.154375 7.81824219 -22.30875 7.63648438 -21.4375 7.44921875 C-13.79097765 5.77541449 -13.79097765 5.77541449 -6.375 3.3125 C-3 2 -3 2 0 2 C0 1.34 0 0.68 0 0 Z " fill="#FAD21F" transform="translate(259,188)"/>
<path d="M0 0 C4.60142404 0.32249297 6.4608435 2.03636486 9.4375 5.4375 C16.10284027 13.22111164 20.53977637 21.3920004 24 31 C24.37125 31.99 24.7425 32.98 25.125 34 C27.62698865 42.57824679 28.52904915 51.09902892 29 60 C29.14791403 61.47010485 29.29637934 62.9401543 29.4453125 64.41015625 C30.00083379 71.47385181 30.35002424 77.40396724 25.62036133 83.07446289 C23.22097943 85.56623878 20.66701126 87.80107307 18 90 C16.98558039 90.88511819 15.97253004 91.77180841 14.9609375 92.66015625 C11.12902826 95.91882839 7.53545607 98.81459873 3 101 C2.98598145 99.69518677 2.98598145 99.69518677 2.97167969 98.36401367 C2.66905533 73.92010649 2.66905533 73.92010649 -2 50 C-2.26272705 49.02305176 -2.26272705 49.02305176 -2.53076172 48.02636719 C-6.15969835 34.68557703 -12.88185892 23.09098147 -21 12 C-20.39937744 11.67201416 -19.79875488 11.34402832 -19.17993164 11.00610352 C-16.47313901 9.52669094 -13.76780439 8.04463214 -11.0625 6.5625 C-10.11697266 6.04623047 -9.17144531 5.52996094 -8.19726562 4.99804688 C-7.29814453 4.50498047 -6.39902344 4.01191406 -5.47265625 3.50390625 C-4.22367554 2.82050171 -4.22367554 2.82050171 -2.94946289 2.12329102 C-1.06093156 1.14748115 -1.06093156 1.14748115 0 0 Z " fill="#43453E" transform="translate(284,175)"/>
<path d="M0 0 C1.45684684 2.26528647 2.7585926 4.43847638 4 6.8125 C4.51373169 7.79210693 4.51373169 7.79210693 5.0378418 8.79150391 C14.99266249 28.46663833 17.20797552 50.89319593 17.0625 72.625 C17.05798828 73.91535156 17.05347656 75.20570313 17.04882812 76.53515625 C17.03714295 79.69015375 17.02076044 82.84505137 17 86 C12.73149181 87.1944674 8.71843201 87.18387968 4.3125 87.1875 C3.54744141 87.19974609 2.78238281 87.21199219 1.99414062 87.22460938 C-3.5714626 87.23867577 -8.62200718 86.4118931 -14 85 C-14.029729 83.68563965 -14.029729 83.68563965 -14.06005859 82.34472656 C-14.13904139 79.03443082 -14.2257524 75.72451173 -14.31738281 72.41455078 C-14.35522034 70.99307816 -14.39014384 69.57152439 -14.421875 68.14990234 C-14.60226925 60.16181931 -15.02718148 52.40791591 -16.58447266 44.54199219 C-17.00312236 41.98089897 -17.07171882 39.59004055 -17 37 C-15.02 36.505 -15.02 36.505 -13 36 C-13 34.02 -13 32.04 -13 30 C-13.66 30 -14.32 30 -15 30 C-16.6875 28.25 -16.6875 28.25 -18 26 C-17.42662541 21.1757448 -14.14183763 18.47607568 -11 15 C-13.97 12.69 -16.94 10.38 -20 8 C-19.34 6.35 -18.68 4.7 -18 3 C-17.67 1.948125 -17.34 0.89625 -17 -0.1875 C-14.31029329 -3.96990007 -11.95999266 -4.27504752 -7.5703125 -5.26171875 C-3.66858368 -4.86443025 -2.45091187 -2.97104108 0 0 Z " fill="#44453E" transform="translate(238,202)"/>
<path d="M0 0 C5.05255964 0.63156995 9.29593201 2.13459373 14 4 C14 4.66 14 5.32 14 6 C14.763125 6.28875 15.52625 6.5775 16.3125 6.875 C19 8 19 8 22 10 C22 10.66 22 11.32 22 12 C22.83660156 11.855625 23.67320312 11.71125 24.53515625 11.5625 C33.48669444 10.13501218 41.94831147 9.77180617 51 10 C50.46417976 13.50992357 49.76259796 15.77654026 47.5625 18.5625 C47.03527344 19.25601563 46.50804687 19.94953125 45.96484375 20.6640625 C44 23 44 23 41.37890625 25.5859375 C36.7158577 30.41434238 33.46625146 34.13411688 33.51464844 41.09521484 C33.5886366 42.53994831 33.67010263 43.98431693 33.75878906 45.42822266 C34.51309668 57.97487267 30.13592867 69.20076554 24 80 C23.34 80 22.68 80 22 80 C21.96036133 79.23558594 21.92072266 78.47117187 21.87988281 77.68359375 C20.80882822 56.52843696 20.80882822 56.52843696 16 36 C15.5359375 34.60007812 15.5359375 34.60007812 15.0625 33.171875 C10.92256981 21.92506466 4.1993782 13.52346429 -4 5 C-3.67 4.01 -3.34 3.02 -3 2 C-2.01 2 -1.02 2 0 2 C0 1.34 0 0.68 0 0 Z " fill="#F8D223" transform="translate(291,170)"/>
<path d="M0 0 C0.75990234 -0.02900391 1.51980469 -0.05800781 2.30273438 -0.08789062 C9.10464331 -0.16340285 14.00805202 1.8344646 19.27734375 6.109375 C33.21637516 21.91326549 45.0217244 46.95833775 44.0625 68.3125 C43.7325 68.9725 43.4025 69.6325 43.0625 70.3125 C42.4025 70.3125 41.7425 70.3125 41.0625 70.3125 C41.0625 70.9725 41.0625 71.6325 41.0625 72.3125 C39.0825 72.3125 37.1025 72.3125 35.0625 72.3125 C35.0625 71.6525 35.0625 70.9925 35.0625 70.3125 C34.4025 70.3125 33.7425 70.3125 33.0625 70.3125 C30.48363193 64.25776627 29.45229206 58.87175943 29.0625 52.3125 C27.0825 52.3125 25.1025 52.3125 23.0625 52.3125 C25.0425 51.8175 25.0425 51.8175 27.0625 51.3125 C23.03975829 38.12289111 18.1039552 22.3401368 6.0625 14.3125 C3.41226376 14.10132189 3.41226376 14.10132189 0.44140625 14.2578125 C-0.65880859 14.28230469 -1.75902344 14.30679688 -2.89257812 14.33203125 C-5.21053997 14.40223312 -7.52827631 14.48033412 -9.84570312 14.56640625 C-10.94720703 14.58832031 -12.04871094 14.61023437 -13.18359375 14.6328125 C-14.19091553 14.66648926 -15.1982373 14.70016602 -16.23608398 14.73486328 C-19.69358102 14.1942876 -20.84648972 13.06726898 -22.9375 10.3125 C-23.0625 7.25 -23.0625 7.25 -21.9375 4.3125 C-15.51161853 -0.12441816 -7.5509833 0.09558207 0 0 Z " fill="#888784" transform="translate(81.9375,43.6875)"/>
<path d="M0 0 C1.98 0 3.96 0 6 0 C6 0.66 6 1.32 6 2 C6.66 2 7.32 2 8 2 C8 2.66 8 3.32 8 4 C8.66 4 9.32 4 10 4 C10.17942163 7.94727588 10.09350689 10.5980513 8 14 C7.34 14 6.68 14 6 14 C5.74089844 14.59425781 5.48179687 15.18851562 5.21484375 15.80078125 C3.04685992 19.72545937 -0.59349169 22.16310456 -4 25 C-4.80695313 25.71671875 -5.61390625 26.4334375 -6.4453125 27.171875 C-18.70212962 37.782254 -34.29472925 46.46156032 -50.87890625 46.43359375 C-53.61079466 45.87514142 -55.01166561 44.94414918 -57 43 C-57.7815534 37.52912621 -57.7815534 37.52912621 -57 35 C-53.07993148 30.92650414 -48.6307728 29.68623987 -43.375 28.125 C-31.7506017 24.42330424 -23.13986159 19.675357 -14.41015625 11.07421875 C-12.12368316 9.10644369 -10.93977227 8.36150332 -8 8 C-8 7.34 -8 6.68 -8 6 C-7.34 6 -6.68 6 -6 6 C-6 5.34 -6 4.68 -6 4 C-5.34 4 -4.68 4 -4 4 C-4 3.34 -4 2.68 -4 2 C-2.68 2 -1.36 2 0 2 C0 1.34 0 0.68 0 0 Z " fill="#868584" transform="translate(143,258)"/>
<path d="M0 0 C1.32 0 2.64 0 4 0 C4 0.66 4 1.32 4 2 C4.99 2 5.98 2 7 2 C7 2.66 7 3.32 7 4 C7.66 4 8.32 4 9 4 C10.65438562 11.29235765 8.27256381 17.08533752 6 24 C5.74653809 24.77811035 5.49307617 25.5562207 5.23193359 26.35791016 C-3.71902377 53.56516928 -3.71902377 53.56516928 -12 65 C-15.09173752 66.54586876 -17.59429552 66.29359521 -21 66 C-23.4375 64.4375 -23.4375 64.4375 -25 62 C-25.70228152 57.61074052 -24.91809829 54.47681951 -23.25 50.46875 C-22.88841797 49.58815918 -22.52683594 48.70756836 -22.15429688 47.80029297 C-21.77337891 46.87619629 -21.39246094 45.95209961 -21 45 C-14.49313143 28.77416248 -14.49313143 28.77416248 -8.7734375 12.26171875 C-7.77173368 9.33249393 -6.5015411 6.70277399 -5 4 C-4.01 4 -3.02 4 -2 4 C-2 3.34 -2 2.68 -2 2 C-1.34 2 -0.68 2 0 2 C0 1.34 0 0.68 0 0 Z " fill="#868584" transform="translate(165,264)"/>
<path d="M0 0 C2.64 0 5.28 0 8 0 C8 0.66 8 1.32 8 2 C8.66 2 9.32 2 10 2 C12.47745082 5.40577681 13.41433159 8.0935719 13.73046875 12.26171875 C13.81143799 13.28620117 13.89240723 14.31068359 13.97583008 15.36621094 C14.04568115 16.46223633 14.11553223 17.55826172 14.1875 18.6875 C14.26572998 19.82348633 14.34395996 20.95947266 14.42456055 22.12988281 C14.95181488 30.49925476 15.2342339 38.86477322 15.3125 47.25 C15.33014404 48.33756592 15.34778809 49.42513184 15.3659668 50.5456543 C15.36116652 56.07776057 15.25356787 60.28193078 12 65 C8.90826248 66.54586876 6.40570448 66.29359521 3 66 C0.63502561 64.13291495 -0.66030715 62.67938569 -2 60 C-2.14555071 58.59902492 -2.23607409 57.19210424 -2.29711914 55.78491211 C-2.33708511 54.91317856 -2.37705109 54.04144501 -2.41822815 53.14329529 C-2.45681442 52.19753128 -2.4954007 51.25176727 -2.53515625 50.27734375 C-2.59962196 48.81537315 -2.59962196 48.81537315 -2.66539001 47.3238678 C-2.75571066 45.25514807 -2.84382771 43.18633116 -2.92993164 41.11743164 C-3.06095598 37.97453659 -3.19880923 34.83200085 -3.33789062 31.68945312 C-3.4248865 29.6771009 -3.51148732 27.66473155 -3.59765625 25.65234375 C-3.63826675 24.72074936 -3.67887726 23.78915497 -3.72071838 22.82933044 C-3.82819957 20.21980592 -3.91865906 17.6104598 -4 15 C-4.03133026 14.1675174 -4.06266052 13.33503479 -4.09494019 12.47732544 C-4.11315826 11.68760345 -4.13137634 10.89788147 -4.15014648 10.08422852 C-4.16971909 9.39144302 -4.18929169 8.69865753 -4.2094574 7.98487854 C-3.96182656 5.63825748 -3.15736333 4.03842201 -2 2 C-1.34 2 -0.68 2 0 2 C0 1.34 0 0.68 0 0 Z " fill="#888684" transform="translate(187,264)"/>
<path d="M0 0 C0 0.99 0 1.98 0 3 C3.96 3 7.92 3 12 3 C12 5.97 12 8.94 12 12 C-2.15530438 17.83250967 -16.51518349 23.42733667 -32 24 C-33.24265625 24.06316406 -34.4853125 24.12632812 -35.765625 24.19140625 C-37.11448193 24.23502803 -38.46344814 24.27539253 -39.8125 24.3125 C-41.05644531 24.34988281 -42.30039063 24.38726562 -43.58203125 24.42578125 C-47.6029559 23.92488892 -49.2122212 22.89218999 -52 20 C-52.69748184 16.35759486 -52.34020471 14.62463816 -50.5703125 11.375 C-46.78352718 7.87596432 -43.31231363 8.14889822 -38.3125 7.9375 C-31.28312525 7.45962183 -24.54066837 6.72785019 -17.6875 5.0625 C-16.69520386 4.82551392 -16.69520386 4.82551392 -15.68286133 4.58374023 C-12.2476291 3.71456405 -8.94855262 2.63695391 -5.64453125 1.37109375 C-2 0 -2 0 0 0 Z " fill="#606366" transform="translate(121,249)"/>
<path d="M0 0 C0.54848998 6.1430878 -0.32601185 9.38457942 -3.7109375 14.53125 C-4.13632813 15.0159375 -4.56171875 15.500625 -5 16 C-5.66 16 -6.32 16 -7 16 C-7 16.66 -7 17.32 -7 18 C-14.82895517 25.31316519 -26.43976066 30.10193558 -37.1875 30.5 C-44.81717334 30.05344721 -52.6550148 28.36849424 -59 24 C-60.36623674 21.26752652 -60.128426 19.01801098 -60 16 C-58.16411967 14.16411967 -55.5344655 14.65303419 -53.07128906 14.45654297 C-38.37483713 13.24661709 -24.70936301 10.39717018 -12.03222656 2.59130859 C-7.85751398 0.09391448 -4.82678552 -0.36185559 0 0 Z " fill="#35322B" transform="translate(163,194)"/>
<path d="M0 0 C9.06634351 7.2952984 17.35144297 15.73301792 23 26 C23 26.66 23 27.32 23 28 C22.01 28 21.02 28 20 28 C20 28.66 20 29.32 20 30 C18.68 30 17.36 30 16 30 C16 30.66 16 31.32 16 32 C15.34 32 14.68 32 14 32 C13.505 32.99 13.505 32.99 13 34 C12.50371094 33.29875 12.00742188 32.5975 11.49609375 31.875 C2.43003531 18.72395454 2.43003531 18.72395454 -10 9 C-15.976423 8.18963756 -21.6121191 9.57879284 -27.53125 10.546875 C-32.98206154 11.25891795 -38.52201116 11.56354499 -44 11 C-46 9 -46 9 -46.4375 6.0625 C-46 3 -46 3 -43.93359375 1.44140625 C-40.54772091 -0.22222501 -37.2779159 -1.18398515 -33.625 -2.125 C-31.72621094 -2.62386719 -31.72621094 -2.62386719 -29.7890625 -3.1328125 C-18.55722694 -5.70339755 -9.84390101 -6.63924419 0 0 Z " fill="#878786" transform="translate(59,76)"/>
<path d="M0 0 C2.31 0 4.62 0 7 0 C11.0558969 15.11304441 10.29524337 30.49593768 10 46 C7.03 46 4.06 46 1 46 C1 45.34 1 44.68 1 44 C-0.2065625 43.9071875 -0.2065625 43.9071875 -1.4375 43.8125 C-6.19709572 42.72697817 -10.3828653 41.38916403 -14 38 C-15.05206838 34.62719256 -15.17056678 31.51367574 -15 28 C-9.375 26 -9.375 26 -6 26 C-6.45375 24.948125 -6.9075 23.89625 -7.375 22.8125 C-8.63512192 19.89130827 -9.81728024 16.95679939 -11 14 C-6.71 14 -2.42 14 2 14 C1.34 9.38 0.68 4.76 0 0 Z " fill="#FAD221" transform="translate(214,240)"/>
<path d="M0 0 C1.44306519 -0.00350464 1.44306519 -0.00350464 2.9152832 -0.00708008 C12.72472315 0.24308017 18.26835455 3.61516739 25.0625 10.625 C22.45222542 12.04878613 19.84134762 13.47122138 17.2265625 14.88671875 C15.14464077 16.03049056 13.07623003 17.19926773 11.0234375 18.39453125 C10.06695312 18.94496094 9.11046875 19.49539062 8.125 20.0625 C7.24972656 20.57683594 6.37445313 21.09117187 5.47265625 21.62109375 C3.0625 22.625 3.0625 22.625 1.0078125 22.515625 C-1.50260679 21.36627641 -3.13008669 19.84520399 -5.125 17.9375 C-10.54339287 12.95722801 -16.2957907 8.81899054 -22.9375 5.625 C-17.34197256 0.02947256 -7.47132189 0.01371844 0 0 Z " fill="#60868B" transform="translate(261.9375,164.375)"/>
<path d="M0 0 C-0.53582024 3.50992357 -1.23740204 5.77654026 -3.4375 8.5625 C-3.96730469 9.23410156 -4.49710937 9.90570313 -5.04296875 10.59765625 C-5.68878906 11.39042969 -6.33460938 12.18320313 -7 13 C-7.40557129 13.50644043 -7.81114258 14.01288086 -8.22900391 14.53466797 C-9.56118198 16.19656873 -10.90363477 17.84957758 -12.25 19.5 C-12.68626709 20.04084229 -13.12253418 20.58168457 -13.57202148 21.13891602 C-14.66952212 22.46466266 -15.83018195 23.73760642 -17 25 C-17.66 25 -18.32 25 -19 25 C-19.25523437 23.83984375 -19.25523437 23.83984375 -19.515625 22.65625 C-21.01434622 16.21493753 -22.83689264 10.79903017 -26 5 C-26.33 4.01 -26.66 3.02 -27 2 C-17.86970027 0.09572892 -9.28145408 -0.22823248 0 0 Z " fill="#636666" transform="translate(342,180)"/>
<path d="M0 0 C2.83478297 1.31538225 4.77861497 3.14231517 7.0625 5.26953125 C8.3309375 6.43935547 8.3309375 6.43935547 9.625 7.6328125 C10.429375 8.39980469 11.23375 9.16679687 12.0625 9.95703125 C12.825625 10.65183594 13.58875 11.34664062 14.375 12.0625 C16.0625 13.95703125 16.0625 13.95703125 16.0625 16.95703125 C10.1510256 17.7301617 4.9310408 18.10522402 -0.9375 16.95703125 C-0.9375 16.29703125 -0.9375 15.63703125 -0.9375 14.95703125 C-2.5875 14.95703125 -4.2375 14.95703125 -5.9375 14.95703125 C-6.04557131 13.02075356 -6.1231225 11.08275369 -6.1875 9.14453125 C-6.23390625 8.06558594 -6.2803125 6.98664063 -6.328125 5.875 C-5.9375 2.95703125 -5.9375 2.95703125 -4.171875 1.0078125 C-1.9375 -0.04296875 -1.9375 -0.04296875 0 0 Z " fill="#638689" transform="translate(216.9375,181.04296875)"/>
<path d="M0 0 C2.75 0.5625 2.75 0.5625 4.75 2.5625 C4.53486562 5.35924699 4.38254198 7.00187493 2.23828125 8.90234375 C0.2338746 11.13823044 0.28906558 12.72568452 0.125 15.6875 C-0.16666667 20.47916667 -0.16666667 20.47916667 -1.25 21.5625 C-4.1875 21.8125 -4.1875 21.8125 -7.25 21.5625 C-10.24063986 17.07654021 -10.08276538 12.81476589 -9.25 7.5625 C-7.0859467 3.21200663 -4.83296361 0.83647447 0 0 Z " fill="#845D23" transform="translate(57.25,162.4375)"/>
<path d="M0 0 C1 1 1 1 1.3125 3.3125 C1 6 1 6 -0.9375 7.6875 C-3.79787061 10.8945822 -3.60972877 13.66985005 -3.82421875 17.85546875 C-4 20 -4 20 -5 21 C-7.375 21.3125 -7.375 21.3125 -10 21 C-12.67932732 18.17289204 -13.47118878 16.05300846 -13.5625 12.1875 C-13.40598448 7.38531935 -12.15891329 4.62100491 -8.796875 1.2109375 C-5.86112346 -0.76750375 -3.39149257 -0.53199883 0 0 Z " fill="#855E23" transform="translate(150,134)"/>
<path d="M0 0 C4.29 0 8.58 0 13 0 C13 4.29 13 8.58 13 13 C11.68 11.35 10.36 9.7 9 8 C6.11140659 4.96697692 3.36887567 2.52665675 0 0 Z " fill="#000000" transform="translate(359,0)"/>
<path d="M0 0 C4.29 0 8.58 0 13 0 C11.35 1.32 9.7 2.64 8 4 C4.96697692 6.88859341 2.52665675 9.63112433 0 13 C0 8.71 0 4.42 0 0 Z " fill="#000000" transform="translate(0,0)"/>
<path d="M0 0 C11.52164009 0.77904328 11.52164009 0.77904328 17 3 C16 6 16 6 13.5625 7.625 C8.40296378 8.16810908 6.00028859 5.71998067 1.9765625 2.69921875 C1.32429688 2.13847656 0.67203125 1.57773438 0 1 C0 0.67 0 0.34 0 0 Z " fill="#96B088" transform="translate(275,166)"/>
<path d="M0 0 C0.33 0 0.66 0 1 0 C1 3.96 1 7.92 1 12 C-2.63 12 -6.26 12 -10 12 C-8.9171875 11.2575 -8.9171875 11.2575 -7.8125 10.5 C-4.75691012 7.78392011 -3.03843383 5.11728398 -1.015625 1.609375 C-0.68046875 1.07828125 -0.3453125 0.5471875 0 0 Z " fill="#000000" transform="translate(371,359)"/>
<path d="M0 0 C0.556875 0.721875 1.11375 1.44375 1.6875 2.1875 C3.98123652 4.97717956 6.4140111 7.48206344 9 10 C9.66 10.66 10.32 11.32 11 12 C7.37 12 3.74 12 0 12 C0 8.04 0 4.08 0 0 Z " fill="#000000" transform="translate(0,359)"/>
<path d="M0 0 C0.33 0 0.66 0 1 0 C1 2.64 1 5.28 1 8 C2.65 8 4.3 8 6 8 C6 8.66 6 9.32 6 10 C3.69 10 1.38 10 -1 10 C-1.125 2.25 -1.125 2.25 0 0 Z " fill="#C4B26E" transform="translate(200,176)"/>
<path d="M0 0 C5 9.61538462 5 9.61538462 5 14 C4.34 14 3.68 14 3 14 C2.67 12.02 2.34 10.04 2 8 C1.34 8 0.68 8 0 8 C0 5.36 0 2.72 0 0 Z " fill="#E2C266" transform="translate(37,180)"/>
<path d="M0 0 C0.33 0 0.66 0 1 0 C1.33 3.96 1.66 7.92 2 12 C1.01 12.66 0.02 13.32 -1 14 C-1.02694851 12.04174127 -1.04637218 10.08337774 -1.0625 8.125 C-1.07410156 7.03445312 -1.08570313 5.94390625 -1.09765625 4.8203125 C-1 2 -1 2 0 0 Z " fill="#F8F0D0" transform="translate(202,160)"/>
</svg>
